<?xml version="1.0" encoding="UTF-8"?>
<svg width="88px" height="18px" viewBox="0 0 88 18" version="1.1" xmlns="http://www.w3.org/2000/svg" xmlns:xlink="http://www.w3.org/1999/xlink">
    <!-- Generator: Sketch 48.2 (47327) - http://www.bohemiancoding.com/sketch -->
    <title>Group 3</title>
    <desc>Created with Sketch.</desc>
    <defs></defs>
    <g id="Assets" stroke="none" stroke-width="1" fill="none" fill-rule="evenodd" transform="translate(-23.000000, -146.000000)">
        <g id="Group-3" transform="translate(23.000000, 146.000000)">
            <g id="Logo_Firstblood">
                <path d="M19.8034246,6.91073172 L16.7877928,6.91073172 L16.7877928,8.96332548 L18.9933339,8.96332548 L18.9933339,10.5027708 L16.7877928,10.5027708 L16.7877928,14.2234981 L15.0684932,14.2234981 L15.0684932,5.20440886 L19.8034246,5.20440886 L19.8034246,6.91073172 Z M21.547873,14.3085839 L21.547873,5.20440886 L23.2923214,5.20440886 L23.2923214,14.3085839 L21.547873,14.3085839 Z M25.5024822,14.2455481 L25.5024822,5.16719053 L28.3127055,5.16719053 C30.0816869,5.16719053 31.2735606,6.3387058 31.2735606,8.45078324 L31.2735606,8.70847151 C31.2735606,10.1119062 30.6839001,11.0518242 29.7305267,11.4898942 L31.22335,14.2455481 L29.3291559,14.2455481 L28.1372823,11.9018733 L27.2338057,11.9018733 L27.2338057,14.2455481 L25.5024822,14.2455481 Z M27.2338057,6.86696675 L27.2338057,10.2149815 L28.0996243,10.2149815 C28.8521554,10.2149815 29.5547897,9.87998678 29.5547897,8.68270268 L29.5547897,8.42501442 C29.5547897,7.17587055 28.8772607,6.86696675 28.0996243,6.86696675 L27.2338057,6.86696675 Z M32.7792189,7.6653172 C32.7792189,6.00419423 33.9334346,4.99985421 35.6895496,4.99985421 C37.3960816,4.99985421 38.5754026,6.17136949 38.5754026,8.03864308 L36.8688705,8.03864308 C36.8688705,7.0729563 36.4047365,6.62232395 35.6644443,6.62232395 C34.9244659,6.62232395 34.5105424,6.98276541 34.5105424,7.6653172 C34.5105424,9.46816872 38.6880626,8.39908454 38.6880626,11.6443461 C38.6880626,13.3698912 37.4836363,14.4 35.6895496,14.4 C33.8957766,14.4 32.6662451,13.2023938 32.6662451,11.2578137 L34.3972548,11.2578137 C34.3972548,12.3140135 34.9244659,12.7517614 35.6895496,12.7517614 C36.4172891,12.7517614 36.9570529,12.4042044 36.9570529,11.6572305 C36.9570529,9.93168549 32.7792189,10.8844878 32.7792189,7.6653172 Z M45.2371539,6.87988337 L43.3928566,6.87988337 L43.3928566,14.2455803 L41.661533,14.2455803 L41.661533,6.87988337 L39.8172357,6.87988337 L39.8172357,5.16722274 L45.2371539,5.16722274 L45.2371539,6.87988337 Z M46.6545044,5.16719053 L49.3643065,5.16719053 C51.1084965,5.16719053 52.3000563,5.96537993 52.3000563,7.63970943 L52.3000563,7.76823145 C52.3000563,8.74680264 51.8861329,9.37781678 51.1834986,9.68704269 C51.9363434,10.0217153 52.3879248,10.6398451 52.3879248,11.6441851 L52.3879248,11.7601448 C52.3879248,13.4344743 51.1960512,14.2455481 49.4521751,14.2455481 L46.6545044,14.2455481 L46.6545044,5.16719053 Z M58.8743784,14.2456447 L54.2073051,14.2456447 L54.2073051,5.16696505 L55.9386287,5.16696505 L55.9386287,12.5458685 L58.8743784,12.5458685 L58.8743784,14.2456447 Z M60.1034706,11.2450904 L60.1034706,8.15444174 C60.1034706,6.30005257 61.3204495,4.99969316 63.0768784,4.99969316 C64.8210683,4.99969316 66.0505999,6.30005257 66.0505999,8.15444174 L66.0505999,11.2450904 C66.0505999,13.0865951 64.8210683,14.3743922 63.0768784,14.3743922 C61.3204495,14.3743922 60.1034706,13.0865951 60.1034706,11.2450904 Z M67.6433422,11.2450904 L67.6433422,8.15444174 C67.6433422,6.30005257 68.8603211,4.99969316 70.6167499,4.99969316 C72.3609399,4.99969316 73.5904714,6.30005257 73.5904714,8.15444174 L73.5904714,11.2450904 C73.5904714,13.0865951 72.3609399,14.3743922 70.6167499,14.3743922 C68.8603211,14.3743922 67.6433422,13.0865951 67.6433422,11.2450904 Z M75.447039,14.2455481 L75.447039,5.16719053 L78.3576834,5.16719053 C80.1141123,5.16719053 81.3310912,6.27428374 81.3310912,8.48943648 L81.3310912,10.8846489 C81.3310912,13.0737107 80.1141123,14.2455481 78.3576834,14.2455481 L75.447039,14.2455481 Z M86.5106261,2.18796413 L86.5106261,3.18159806 L86.0390157,3.18159806 L86.0390157,1.2 L86.5047218,1.2 L87.02246,2.33537915 L87.5398292,1.2 L88,1.2 L88,3.18159806 L87.5339249,3.18159806 L87.5339249,2.18229432 L87.1759733,2.93567012 L86.8634114,2.93567012 L86.5106261,2.18796413 Z M85.5487696,1.62594436 L85.0581307,1.62594436 L85.0581307,3.18159806 L84.5619923,3.18159806 L84.5619923,1.62594436 L84.0780314,1.62594436 L84.0780314,1.2 L85.5487696,1.2 L85.5487696,1.62594436 Z M77.1783625,6.86696675 L77.1783625,12.5586563 L78.1568411,12.5586563 C78.9850019,12.5586563 79.6123203,12.2239837 79.6123203,10.4465789 L79.6123203,8.68270268 C79.6123203,7.7041315 79.3612674,6.86696675 78.1568411,6.86696675 L77.1783625,6.86696675 Z M49.3894118,12.5586563 C50.0543882,12.5586563 50.669154,12.3911589 50.669154,11.5027786 L50.669154,11.3610501 C50.669154,10.5886295 50.0543882,10.3824789 49.4521751,10.3824789 L48.3858279,10.3824789 L48.3858279,12.5586563 L49.3894118,12.5586563 Z M49.4521751,9.0044909 C50.0167302,9.0044909 50.5812854,8.8112247 50.5812854,7.97438206 L50.5812854,7.83265352 C50.5812854,7.04734853 49.953967,6.86696675 49.3018571,6.86696675 L48.3858279,6.86696675 L48.3858279,9.0044909 L49.4521751,9.0044909 Z M64.3189625,11.3095124 L64.3189625,8.09034178 C64.3189625,7.07311736 63.7293021,6.69914727 63.0768784,6.69914727 C62.4621126,6.69914727 61.8476606,7.03446412 61.8476606,8.07745737 L61.8476606,11.296628 C61.8476606,12.3138524 62.4247685,12.6742939 63.0768784,12.6742939 C63.6665388,12.6742939 64.3189625,12.3525057 64.3189625,11.3095124 Z M71.8588341,11.3095124 L71.8588341,8.09034178 C71.8588341,7.07311736 71.2691736,6.69914727 70.6167499,6.69914727 C70.0019841,6.69914727 69.3872184,7.03446412 69.3872184,8.07745737 L69.3872184,11.296628 C69.3872184,12.3138524 69.96464,12.6742939 70.6167499,12.6742939 C71.2064104,12.6742939 71.8588341,12.3525057 71.8588341,11.3095124 Z" id="Combined-Shape" fill="#FFFFFF"></path>
                <path d="M0.681720771,9.00015443 L3.35989789,9.00015443 C3.73562454,9.00015443 4.04030132,9.30314045 4.04030132,9.67716295 L4.04030132,13.6978276 C4.04030132,13.8772719 4.11197172,14.0496126 4.23948919,14.1768606 L7.87978716,17.8003387 C8.30825827,18.2268664 9.04109589,17.9248069 9.04109589,17.3213057 L9.04109589,0.678694283 C9.04109589,0.0751930726 8.30825827,-0.226866387 7.87978716,0.199661337 L0.200505212,7.8438041 C-0.227965896,8.27064068 0.0757800957,9.00015443 0.681720771,9.00015443" id="Fill-1" fill="#D0021B"></path>
            </g>
        </g>
    </g>
</svg>