<?xml version="1.0" encoding="UTF-8"?>
<svg width="23px" height="25px" viewBox="0 0 23 25" version="1.1" xmlns="http://www.w3.org/2000/svg" xmlns:xlink="http://www.w3.org/1999/xlink">
    <!-- Generator: Sketch 48.2 (47327) - http://www.bohemiancoding.com/sketch -->
    <title>Icon_Ticket_Bronze_S</title>
    <desc>Created with Sketch.</desc>
    <defs>
        <linearGradient x1="50%" y1="96.6914152%" x2="50%" y2="0%" id="linearGradient-1">
            <stop stop-color="#EEBE9F" offset="0%"></stop>
            <stop stop-color="#D8764B" offset="100%"></stop>
        </linearGradient>
        <path d="M11.5555556,21 L11.0740741,21 C11.0740741,20.7033075 10.8369508,20.4627907 10.5444444,20.4627907 C10.2519381,20.4627907 10.0148148,20.7033075 10.0148148,21 L9.53323905,21 C9.52030341,19.3254887 8.17800999,17.972093 6.52407407,17.972093 C4.87013816,17.972093 3.52784474,19.3254887 3.5149091,21 L2.98518519,21 C2.98518519,20.7033075 2.74806192,20.4627907 2.45555556,20.4627907 C2.16304919,20.4627907 1.92592593,20.7033075 1.92592593,21 L1.44444444,21 C1.44444444,20.7033075 1.20732118,20.4627907 0.914814815,20.4627907 C0.622308447,20.4627907 0.385185185,20.7033075 0.385185185,21 L0,21 L0,0 L0.385185185,0 C0.385185185,0.296692505 0.622308447,0.537209302 0.914814815,0.537209302 C1.20732118,0.537209302 1.44444444,0.296692505 1.44444444,1.11022302e-16 L1.92592593,0 C1.92592593,0.296692505 2.16304919,0.537209302 2.45555556,0.537209302 C2.74806192,0.537209302 2.98518519,0.296692505 2.98518519,1.11022302e-16 L3.5149091,0 C3.52784474,1.67451129 4.87013816,3.02790698 6.52407407,3.02790698 C8.17800999,3.02790698 9.52030341,1.67451129 9.53323905,7.7387749e-14 L10.0148148,0 C10.0148148,0.296692505 10.2519381,0.537209302 10.5444444,0.537209302 C10.8369508,0.537209302 11.0740741,0.296692505 11.0740741,1.11022302e-16 L11.5555556,0 C11.5555556,0.296692505 11.7926788,0.537209302 12.0851852,0.537209302 C12.3776916,0.537209302 12.6148148,0.296692505 12.6148148,1.11022302e-16 L13,0 L13,21 L12.6148148,21 C12.6148148,20.7033075 12.3776916,20.4627907 12.0851852,20.4627907 C11.7926788,20.4627907 11.5555556,20.7033075 11.5555556,21 Z" id="path-2"></path>
    </defs>
    <g id="Assets" stroke="none" stroke-width="1" fill="none" fill-rule="evenodd" transform="translate(-23.000000, -96.000000)">
        <g id="Icon_Ticket_Bronze_S" transform="translate(34.500000, 108.500000) rotate(30.000000) translate(-34.500000, -108.500000) translate(28.000000, 98.000000)">
            <g id="Combined-Shape">
                <use fill="url(#linearGradient-1)" fill-rule="evenodd" xlink:href="#path-2"></use>
                <path stroke="#FFD3C1" stroke-width="1" d="M11.5555556,20.8032795 L11.5555556,21 L11.0740741,21 L11.0740741,20.8032795 C11.0946604,20.6953665 11.1318633,20.5933218 11.1829242,20.5 L11.4467054,20.5 C11.4977663,20.5933218 11.5349692,20.6953665 11.5555556,20.8032795 Z M11.3148148,20.3118317 C11.5031718,20.0979104 11.7781026,19.9627907 12.0851852,19.9627907 C12.2329179,19.9627907 12.3732094,19.9940632 12.5,20.0503374 L12.5,0.94966261 C12.3732094,1.00593685 12.2329179,1.0372093 12.0851852,1.0372093 C11.7781026,1.0372093 11.5031718,0.902089552 11.3148148,0.688168296 C11.1264578,0.902089552 10.851527,1.0372093 10.5444444,1.0372093 C10.3140179,1.0372093 10.1016948,0.961128802 9.93046861,0.832762538 C9.55165599,2.38033459 8.17058534,3.52790698 6.52407407,3.52790698 C4.86624976,3.52790698 3.47752623,2.36451065 3.11001335,0.800806383 C2.93232216,0.948406218 2.70450423,1.0372093 2.45555556,1.0372093 C2.14847296,1.0372093 1.87354217,0.902089552 1.68518519,0.688168296 C1.4968282,0.902089552 1.22189741,1.0372093 0.914814815,1.0372093 C0.767082069,1.0372093 0.626790621,1.00593685 0.5,0.94966261 L0.5,20.0503374 C0.626790621,19.9940632 0.767082069,19.9627907 0.914814815,19.9627907 C1.22189741,19.9627907 1.4968282,20.0979104 1.68518519,20.3118317 C1.87354217,20.0979104 2.14847296,19.9627907 2.45555556,19.9627907 C2.70450423,19.9627907 2.93232216,20.0515938 3.11001335,20.1991936 C3.47752623,18.6354894 4.86624976,17.472093 6.52407407,17.472093 C8.17058534,17.472093 9.55165599,18.6196654 9.93046861,20.1672375 C10.1016948,20.0388712 10.3140179,19.9627907 10.5444444,19.9627907 C10.851527,19.9627907 11.1264578,20.0979104 11.3148148,20.3118317 Z M12.9874461,20.5 C12.9917288,20.5078272 12.9959139,20.5157158 13,20.5236641 L13,21 L12.6148148,21 L12.6148148,20.5 L12.9874461,20.5 Z M12.6148148,1.11022302e-16 L13,0 L13,0.476335935 C12.9959139,0.484284197 12.9917288,0.492172781 12.9874461,0.5 L12.6148148,0.5 L12.6148148,1.11022302e-16 Z M11.1829242,0.5 C11.1318633,0.406678219 11.0946604,0.30463349 11.0740741,0.196720538 L11.0740741,1.11022302e-16 L11.5555556,0 L11.5555556,0.196720538 C11.5349692,0.30463349 11.4977663,0.406678219 11.4467054,0.5 L11.1829242,0.5 Z M9.64218351,0.5 C9.59104453,0.406535568 9.55380595,0.304321499 9.53323905,0.19622563 L9.53323905,7.73825448e-14 L10.0148148,0.00372018337 L10.0148148,0.342677356 C10.0094595,0.395468978 10.0029622,0.447918451 9.99534815,0.5 L9.64218351,0.5 Z M3.0528,0.5 C3.02910561,0.337924939 3.0162251,0.172286832 3.01492402,0.00386239571 L3.40819969,0.394111732 C3.39335384,0.430484051 3.37651429,0.465826865 3.35781649,0.5 L3.0528,0.5 Z M1.55329462,0.5 C1.50223369,0.406678219 1.46503076,0.30463349 1.44444444,0.196720538 L1.44444444,1.11022302e-16 L1.92592593,0 L1.92592593,0.196720538 C1.90533961,0.30463349 1.86813668,0.406678219 1.81707575,0.5 L1.55329462,0.5 Z M0.0125538776,0.5 C0.0082712215,0.492172781 0.0040860531,0.484284197 -2.57402606e-14,0.476335935 L0,0 L0.385185185,0 L0.385185185,0.5 L0.0125538776,0.5 Z M0.385185185,21 L0,21 L-4.39343271e-15,20.5236641 C0.0040860531,20.5157158 0.0082712215,20.5078272 0.0125538776,20.5 L0.385185185,20.5 L0.385185185,21 Z M1.81707575,20.5 C1.86813668,20.5933218 1.90533961,20.6953665 1.92592593,20.8032795 L1.92592593,21 L1.44444444,21 L1.44444444,20.8032795 C1.46503076,20.6953665 1.50223369,20.5933218 1.55329462,20.5 L1.81707575,20.5 Z M3.35781649,20.5 C3.37651429,20.5341731 3.39335384,20.5695159 3.40819969,20.6058883 L3.01492402,20.9961376 C3.0162251,20.8277132 3.02910561,20.6620751 3.0528,20.5 L3.35781649,20.5 Z M9.99534815,20.5 C10.0029622,20.5520815 10.0094595,20.604531 10.0148148,20.6573226 L10.0148148,20.9962798 L9.53323905,21 L9.53323905,20.8037744 C9.55380595,20.6956785 9.59104453,20.5934644 9.64218351,20.5 L9.99534815,20.5 Z"></path>
            </g>
            <g id="Group-41" transform="translate(2.600000, 6.544186)" fill="#FFE7D7">
                <ellipse id="Oval-8" cx="3.94814815" cy="4.00465116" rx="3.94814815" ry="4.00465116"></ellipse>
            </g>
            <path d="M4.71851852,13.7827762 L4.71851852,7.3255814 L6.67154966,7.3255814 C7.33285019,7.3255814 7.8501264,7.47538324 8.22339382,7.77499142 C8.59666123,8.0745996 8.78329213,8.51059004 8.78329213,9.08297582 L8.78329213,9.17688239 C8.78329213,9.8565905 8.51436729,10.311213 7.97650952,10.5407636 C8.55551487,10.7971447 8.84501321,11.2607106 8.84501321,11.9314752 L8.84501321,12.0164383 C8.84501321,12.588824 8.6583823,13.026305 8.28511489,13.3288944 C7.91184748,13.6314838 7.39457127,13.7827762 6.73327073,13.7827762 L4.71851852,13.7827762 Z M5.96616595,12.5843494 L6.68918425,12.5843494 C6.99191294,12.5843494 7.22116035,12.5277079 7.37693337,12.4144233 C7.53270638,12.3011386 7.61059172,12.107365 7.61059172,11.8330969 L7.61059172,11.7302468 C7.61059172,11.2681645 7.31815432,11.0371269 6.73327073,11.0371269 L5.96616595,11.0371269 L5.96616595,12.5843494 Z M5.96616595,10.0533437 L6.73327073,10.0533437 C7.27406761,10.0533437 7.544462,9.81038153 7.544462,9.32444986 L7.544462,9.2215998 C7.544462,8.76249871 7.23732925,8.53295161 6.62305453,8.53295161 L5.96616595,8.53295161 L5.96616595,10.0533437 Z" id="B" fill="#6B4E3B"></path>
        </g>
    </g>
</svg>